<svg xmlns="http://www.w3.org/2000/svg" xml:space="preserve" width="2048" height="2048" style="shape-rendering:geometricPrecision;text-rendering:geometricPrecision;image-rendering:optimizeQuality;fill-rule:evenodd;clip-rule:evenodd"><defs><clipPath id="id0"><path d="M1024 0c565.541 0 1024 458.459 1024 1024 0 565.541-458.459 1024-1024 1024C458.459 2048 0 1589.541 0 1024 0 458.459 458.459 0 1024 0z"/></clipPath><style>.fil7{fill:#8a8a8a}.fil1{fill:#8e24aa}</style></defs><g id="Layer_x0020_1"><path d="M1024 0c565.541 0 1024 458.459 1024 1024 0 565.541-458.459 1024-1024 1024C458.459 2048 0 1589.541 0 1024 0 458.459 458.459 0 1024 0z" style="fill:#ba68c8"/><g style="clip-path:url(#id0)"><g id="_308713696"><path id="_3039017121" class="fil1" d="M1477.48 605.652 2613.36 1741.53l1.29 1.56 1.16 1.69 1 1.8.85 1.92.68 2 .49 2.1.31 2.16.1 2.23v493.34l-.1 2.23-.31 2.16-.5 2.1-.67 2.01-.85 1.91-1.01 1.8-1.15 1.69-1.3 1.56-1.42 1.41-1.55 1.27-1.65 1.1-1.75.93-1.83.73-1.92.55-1.98.33-2.04.11-1135.88-1135.88 2.04-.11 1.98-.34 1.92-.54 1.83-.74 1.75-.92 1.65-1.1 1.55-1.27 1.42-1.41 1.3-1.56 1.15-1.69 1.01-1.8.85-1.92.67-2 .5-2.1.31-2.16.1-2.23V621.109l-.1-2.227-.31-2.167-.5-2.092-.67-2.008-.85-1.913-1-1.805-1.16-1.687z"/><path id="_303902240" class="fil1" d="m1474.71 1141.65 1135.88 1135.88 1.21 1.47 1.13 1.59 1.06 1.71.99 1.81.93 1.89.89 1.96.85 2.02.81 2.06.78 2.08-1135.88-1135.89-.78-2.08-.82-2.05-.84-2.02-.89-1.96-.93-1.9-.99-1.8-1.06-1.71-1.13-1.6z"/><path id="_303902648" class="fil1" d="m1483.36 1158.23 1135.88 1135.89 99.86 268.65-1135.88-1135.88z"/><path id="_303902960" class="fil1" d="m584.67 1136.34 1135.88 1135.88-2.04-.11-1.98-.33-1.91-.54-1.84-.74-1.75-.93-1.65-1.1-1.54-1.26L571.954 1131.33l1.543 1.26 1.652 1.1 1.749.92 1.838.74 1.914.55 1.981.33z"/><path id="_303902984" class="fil1" d="M1583.22 1426.89 2719.1 2562.77l.58 2.08.2 2.06-.15 2.02-.46 1.96-.76 1.89-1.02 1.81-1.26 1.71-1.46 1.59-1.64 1.47-1.79 1.31-1.91 1.16-2 .98-2.06.79-2.1.58-2.11.36-2.09.13H1620.69l-2.08-.13-2.11-.36-2.1-.58-2.07-.79-2-.97-1.91-1.16-1.79-1.32L470.751 1443.48l1.788 1.32 1.91 1.15 2.002.98 2.066.79 2.101.58 2.108.36 2.086.12H1563.19l2.09-.12 2.1-.36 2.1-.58 2.07-.79 2-.98 1.91-1.16 1.79-1.32 1.64-1.46 1.46-1.59 1.25-1.71 1.03-1.81.75-1.89.47-1.97.15-2.01-.2-2.06z"/><path id="_308713792" class="fil1" d="M1483.36 621.109v493.34c0 12.028-9.026 21.893-20.027 21.893 10.993 0 15.893 10.762 20.03 21.893l99.86 268.656c4.133 11.127-9.015 21.893-20.031 21.893H484.812c-11.017 0-24.176-10.738-20.03-21.893l99.86-268.656c4.148-11.156 9.038-21.893 20.027-21.893-11.003 0-20.029-9.852-20.029-21.893v-493.34c0-12.041 9.013-21.893 20.03-21.893h878.66c11.017 0 20.03 9.866 20.03 21.893z"/></g></g><path d="M1024 0c565.541 0 1024 458.459 1024 1024 0 565.541-458.459 1024-1024 1024C458.459 2048 0 1589.541 0 1024 0 458.459 458.459 0 1024 0z" style="fill:none"/><path d="M484.811 1448.78h1078.38c11.016 0 24.165-10.765 20.03-21.893l-99.86-268.656c-4.136-11.13-9.036-21.893-20.029-21.893H584.673c-10.992 0-15.883 10.738-20.029 21.893l-99.862 268.656c-4.146 11.156 9.013 21.893 20.029 21.893z" style="fill:#999"/><path style="fill:#b8b4b4" d="M514.106 1356.04H1533.9l-86.44-199.73H600.548z"/><path d="M584.67 599.216h878.661c11.016 0 20.03 9.866 20.03 21.893v493.34c0 12.028-9.027 21.893-20.03 21.893H584.67c-11.003 0-20.03-9.852-20.03-21.893v-493.34c0-12.041 9.014-21.893 20.03-21.893z" style="fill:#434a52"/><path style="fill:#bbdefb" d="M604.584 639.16v457.24h838.836V639.16z"/><path class="fil7" transform="matrix(.62413 0 -.15812 .62413 611.549 1169.32)" d="M0 0h63.999v63.999H0z"/><path class="fil7" transform="matrix(.62413 0 -.11226 .62413 672.2 1169.32)" d="M0 0h63.999v63.999H0z"/><path class="fil7" transform="matrix(.62413 0 -.11226 .62413 732.852 1169.32)" d="M0 0h63.999v63.999H0z"/><path class="fil7" transform="matrix(.62413 0 -.11226 .62413 793.503 1169.32)" d="M0 0h63.999v63.999H0z"/><path class="fil7" d="M846.969 1169.32h39.944v39.944h-39.944zM900.436 1169.32h39.944v39.944h-39.944zM953.903 1169.32h39.944v39.944h-39.944zM1007.37 1169.32h39.944v39.944h-39.944zM1060.84 1169.32h39.944v39.944h-39.944zM1114.3 1169.32h39.944v39.944H1114.3zM1167.77 1169.32h39.944v39.944h-39.944zM1221.23 1169.32h39.944v39.944h-39.944z"/><path class="fil7" transform="matrix(.62413 0 .1101 .62413 1335.21 1169.32)" d="M0 0h63.999v63.999H0z"/><path class="fil7" transform="matrix(-.62413 0 .15812 .62413 1435.67 1169.32)" d="M0 0h63.999v63.999H0z"/><path class="fil7" transform="matrix(.62413 0 .1101 .62413 1274.7 1169.32)" d="M0 0h63.999v63.999H0z"/><path class="fil7" transform="matrix(.62413 0 -.15812 .62413 611.549 1236.2)" d="M0 0h63.999v63.999H0z"/><path class="fil7" transform="matrix(.62413 0 -.11226 .62413 672.2 1236.2)" d="M0 0h63.999v63.999H0z"/><path class="fil7" transform="matrix(.62413 0 -.11226 .62413 732.852 1236.2)" d="M0 0h63.999v63.999H0z"/><path class="fil7" transform="matrix(.62413 0 -.11226 .62413 793.503 1236.2)" d="M0 0h63.999v63.999H0z"/><path class="fil7" d="M846.969 1236.2h39.944v39.944h-39.944zM900.436 1236.2h39.944v39.944h-39.944zM953.903 1236.2h39.944v39.944h-39.944zM1007.37 1236.2h39.944v39.944h-39.944zM1060.84 1236.2h39.944v39.944h-39.944zM1114.3 1236.2h39.944v39.944H1114.3zM1167.77 1236.2h39.944v39.944h-39.944zM1221.23 1236.2h39.944v39.944h-39.944z"/><path class="fil7" transform="matrix(.62413 0 .1101 .62413 1335.21 1236.2)" d="M0 0h63.999v63.999H0z"/><path class="fil7" transform="matrix(-.62413 0 .15812 .62413 1435.67 1236.2)" d="M0 0h63.999v63.999H0z"/><path class="fil7" transform="matrix(.62413 0 .1101 .62413 1274.7 1236.2)" d="M0 0h63.999v63.999H0z"/><path class="fil7" transform="matrix(.62413 0 -.15812 .62413 611.549 1303.08)" d="M0 0h63.999v63.999H0z"/><path class="fil7" transform="matrix(.62413 0 -.11226 .62413 672.2 1303.08)" d="M0 0h63.999v63.999H0z"/><path class="fil7" transform="matrix(.62413 0 -.11226 .62413 732.852 1303.08)" d="M0 0h63.999v63.999H0z"/><path class="fil7" d="M1061.48 1303.08H1254.53l6.94 39.95H786.53l7.264-39.95z"/><path class="fil7" transform="matrix(.62413 0 .1101 .62413 1335.21 1303.08)" d="M0 0h63.999v63.999H0z"/><path class="fil7" transform="matrix(-.62413 0 .15812 .62413 1435.67 1303.08)" d="M0 0h63.999v63.999H0z"/><path class="fil7" transform="matrix(.62413 0 .1101 .62413 1274.7 1303.08)" d="M0 0h63.999v63.999H0z"/><path d="M1304.54 702.918c-1.387 0-2.633.448-3.726 1.331-1.094.897-1.948 2.495-2.55 4.792-.786 2.986-1.19 8.002-1.19 15.064 0 7.061.363 11.91 1.063 14.544.716 2.649 1.611 4.4 2.69 5.283 1.093.868 2.326 1.317 3.713 1.317 1.402 0 2.65-.45 3.742-1.346 1.093-.883 1.946-2.48 2.55-4.777 1.617-6.096 1.731-23.515.126-29.58-.713-2.635-1.61-4.4-2.69-5.297-1.093-.883-2.326-1.331-3.728-1.331zm0-9.57c5.844 0 10.397 2.088 13.677 6.25 3.908 4.918 5.871 13.087 5.871 24.507 0 11.377-1.977 19.56-5.913 24.549-3.25 4.105-7.79 6.151-13.635 6.151-5.843 0-10.565-2.242-14.152-6.754-3.587-4.497-5.381-12.526-5.381-24.073 0-11.336 1.977-19.491 5.914-24.465 3.251-4.106 7.79-6.164 13.619-6.164zm-36.738 60.434h-11.531v-43.48c-4.22 3.952-9.18 6.866-14.898 8.744v-10.467c3-.981 6.28-2.845 9.81-5.591 3.532-2.76 5.955-5.97 7.259-9.64h9.36v60.434zm-56.777-50.864c-1.388 0-2.634.448-3.728 1.331-1.092.897-1.947 2.495-2.55 4.792-.785 2.986-1.19 8.002-1.19 15.064 0 7.061.365 11.91 1.064 14.544.715 2.649 1.612 4.4 2.69 5.283 1.094.868 2.326 1.317 3.714 1.317 1.4 0 2.648-.45 3.74-1.346 1.093-.883 1.948-2.48 2.552-4.777.783-2.958 1.19-7.96 1.19-15.021 0-7.062-.364-11.91-1.065-14.56-.715-2.634-1.61-4.4-2.69-5.296-1.093-.883-2.326-1.331-3.727-1.331zm0-9.57c5.843 0 10.397 2.088 13.675 6.25 3.91 4.918 5.871 13.087 5.871 24.507 0 11.377-1.975 19.56-5.913 24.549-3.25 4.105-7.79 6.151-13.633 6.151-5.844 0-10.566-2.242-14.152-6.754-3.587-4.497-5.381-12.526-5.381-24.073 0-11.336 1.976-19.491 5.914-24.465 3.25-4.106 7.79-6.164 13.619-6.164zm-36.74 60.434h-11.532v-43.48c-4.217 3.952-9.178 6.866-14.896 8.744v-10.467c3-.981 6.279-2.845 9.81-5.591 3.53-2.76 5.954-5.97 7.258-9.64h9.36v60.434zm-56.776-50.864c-1.388 0-2.634.448-3.727 1.331-1.093.897-1.948 2.495-2.55 4.792-.785 2.986-1.191 8.002-1.191 15.064 0 7.061.363 11.91 1.064 14.544.716 2.649 1.612 4.4 2.69 5.283 1.093.868 2.326 1.317 3.714 1.317 1.4 0 2.648-.45 3.74-1.346 1.094-.883 1.948-2.48 2.552-4.777.784-2.958 1.19-7.96 1.19-15.021 0-7.062-.364-11.91-1.064-14.56-.715-2.634-1.612-4.4-2.692-5.296-1.092-.883-2.325-1.331-3.726-1.331zm0-9.57c5.844 0 10.397 2.088 13.676 6.25 3.908 4.918 5.871 13.087 5.871 24.507 0 11.377-1.977 19.56-5.914 24.549-3.25 4.105-7.79 6.151-13.633 6.151-5.843 0-10.565-2.242-14.152-6.754-3.587-4.497-5.381-12.526-5.381-24.073 0-11.336 1.976-19.491 5.912-24.465 3.252-4.106 7.792-6.164 13.62-6.164zm-36.74 60.434h-11.532v-43.48c-4.218 3.952-9.178 6.866-14.895 8.744v-10.467c2.999-.981 6.278-2.845 9.808-5.591 3.532-2.76 5.956-5.97 7.26-9.64h9.36v60.434zm-56.776-50.864c-1.388 0-2.634.448-3.727 1.331-1.093.897-1.949 2.495-2.551 4.792-.784 2.986-1.19 8.002-1.19 15.064 0 7.061.364 11.91 1.065 14.544.714 2.649 1.61 4.4 2.69 5.283 1.093.868 2.325 1.317 3.713 1.317 1.402 0 2.649-.45 3.74-1.346 1.094-.883 1.949-2.48 2.551-4.777.785-2.958 1.192-7.96 1.192-15.021 0-7.062-.365-11.91-1.066-14.56-.715-2.634-1.611-4.4-2.69-5.296-1.094-.883-2.325-1.331-3.727-1.331zm0-9.57c5.843 0 10.397 2.088 13.676 6.25 3.909 4.918 5.87 13.087 5.87 24.507 0 11.377-1.975 19.56-5.913 24.549-3.25 4.105-7.79 6.151-13.633 6.151-5.845 0-10.565-2.242-14.152-6.754-3.587-4.497-5.382-12.526-5.382-24.073 0-11.336 1.976-19.491 5.914-24.465 3.25-4.106 7.79-6.164 13.62-6.164zm-36.739 60.434h-11.533v-43.48c-4.218 3.952-9.177 6.866-14.895 8.744v-10.467c2.999-.981 6.279-2.845 9.808-5.591 3.533-2.76 5.956-5.97 7.259-9.64h9.361v60.434zm-56.778-50.864c-1.386 0-2.633.448-3.727 1.331-1.093.897-1.947 2.495-2.549 4.792-.785 2.986-1.192 8.002-1.192 15.064 0 7.061.365 11.91 1.064 14.544.716 2.649 1.614 4.4 2.691 5.283 1.094.868 2.327 1.317 3.713 1.317 1.402 0 2.65-.45 3.74-1.346 1.095-.883 1.95-2.48 2.553-4.777.783-2.958 1.19-7.96 1.19-15.021 0-7.062-.364-11.91-1.065-14.56-.714-2.634-1.61-4.4-2.69-5.296-1.094-.883-2.326-1.331-3.728-1.331zm0-9.57c5.843 0 10.399 2.088 13.676 6.25 3.91 4.918 5.872 13.087 5.872 24.507 0 11.377-1.976 19.56-5.913 24.549-3.25 4.105-7.792 6.151-13.635 6.151s-10.565-2.242-14.15-6.754c-3.589-4.497-5.383-12.526-5.383-24.073 0-11.336 1.976-19.491 5.914-24.465 3.252-4.106 7.79-6.164 13.62-6.164zm-36.739 60.434h-11.531v-43.48c-4.218 3.952-9.178 6.866-14.896 8.744v-10.467c3-.981 6.277-2.845 9.809-5.591 3.531-2.76 5.955-5.97 7.258-9.64h9.36v60.434zm-56.777-50.864c-1.388 0-2.632.448-3.727 1.331-1.093.897-1.947 2.495-2.55 4.792-.785 2.986-1.19 8.002-1.19 15.064 0 7.061.364 11.91 1.064 14.544.715 2.649 1.611 4.4 2.69 5.283 1.094.868 2.325 1.317 3.713 1.317 1.402 0 2.65-.45 3.742-1.346 1.092-.883 1.946-2.48 2.55-4.777.785-2.958 1.192-7.96 1.192-15.021 0-7.062-.364-11.91-1.067-14.56-.713-2.634-1.61-4.4-2.69-5.296-1.093-.883-2.325-1.331-3.727-1.331zm0-9.57c5.844 0 10.397 2.088 13.677 6.25 3.909 4.918 5.87 13.087 5.87 24.507 0 11.377-1.976 19.56-5.913 24.549-3.25 4.105-7.79 6.151-13.634 6.151-5.843 0-10.565-2.242-14.152-6.754-3.587-4.497-5.38-12.526-5.38-24.073 0-11.336 1.975-19.491 5.913-24.465 3.251-4.106 7.79-6.164 13.62-6.164zm-36.738 60.434H788.69v-43.48c-4.218 3.952-9.179 6.866-14.896 8.744v-10.467c3-.981 6.278-2.845 9.809-5.591 3.531-2.76 5.955-5.97 7.259-9.64h9.36v60.434zm-56.778-50.864c-1.387 0-2.634.448-3.726 1.331-1.094.897-1.948 2.495-2.55 4.792-.786 2.986-1.19 8.002-1.19 15.064 0 7.061.363 11.91 1.063 14.544.716 2.649 1.611 4.4 2.69 5.283 1.093.868 2.326 1.317 3.713 1.317 1.402 0 2.65-.45 3.742-1.346 1.092-.883 1.946-2.48 2.55-4.777.784-2.958 1.191-7.96 1.191-15.021 0-7.062-.364-11.91-1.065-14.56-.713-2.634-1.61-4.4-2.69-5.296-1.093-.883-2.326-1.331-3.728-1.331zm561.096 95.8c-1.387 0-2.633.45-3.726 1.333-1.094.896-1.948 2.494-2.55 4.792-.786 2.984-1.19 8-1.19 15.063 0 7.062.363 11.91 1.063 14.544.716 2.648 1.611 4.4 2.69 5.283 1.093.867 2.326 1.317 3.713 1.317 1.402 0 2.65-.45 3.742-1.345 1.093-.882 1.946-2.48 2.55-4.779 1.617-6.094 1.731-23.513.126-29.58-.713-2.633-1.61-4.399-2.69-5.295-1.093-.883-2.326-1.333-3.728-1.333zm0-9.569c5.844 0 10.397 2.088 13.677 6.25 3.908 4.918 5.871 13.087 5.871 24.507 0 11.378-1.977 19.56-5.913 24.55-3.25 4.104-7.79 6.15-13.635 6.15-5.843 0-10.565-2.241-14.152-6.753-3.587-4.497-5.381-12.528-5.381-24.073 0-11.336 1.977-19.492 5.914-24.465 3.251-4.106 7.79-6.166 13.619-6.166zm-36.738 60.435h-11.531v-43.48c-4.22 3.952-9.18 6.866-14.898 8.744V804.38c3-.982 6.28-2.846 9.81-5.592 3.532-2.76 5.955-5.968 7.259-9.64h9.36v60.435zm-56.777-50.865c-1.388 0-2.634.45-3.728 1.332-1.092.896-1.947 2.494-2.55 4.792-.785 2.984-1.19 8-1.19 15.063 0 7.062.365 11.91 1.064 14.544.715 2.648 1.612 4.4 2.69 5.283 1.094.867 2.326 1.317 3.714 1.317 1.4 0 2.648-.45 3.74-1.345 1.093-.882 1.948-2.48 2.552-4.779.783-2.956 1.19-7.958 1.19-15.02 0-7.063-.364-11.91-1.065-14.56-.715-2.633-1.61-4.399-2.69-5.295-1.093-.883-2.326-1.333-3.727-1.333zm0-9.57c5.843 0 10.397 2.088 13.675 6.25 3.91 4.918 5.871 13.087 5.871 24.507 0 11.378-1.975 19.56-5.913 24.55-3.25 4.104-7.79 6.15-13.633 6.15-5.844 0-10.566-2.241-14.152-6.753-3.587-4.497-5.381-12.528-5.381-24.073 0-11.336 1.976-19.492 5.914-24.465 3.25-4.106 7.79-6.166 13.619-6.166zm-36.74 60.435h-11.532v-43.48c-4.217 3.952-9.178 6.866-14.896 8.744V804.38c3-.982 6.279-2.846 9.81-5.592 3.53-2.76 5.954-5.968 7.258-9.64h9.36v60.435zm-56.776-50.865c-1.388 0-2.634.45-3.727 1.332-1.093.896-1.948 2.494-2.55 4.792-.785 2.984-1.191 8-1.191 15.063 0 7.062.363 11.91 1.064 14.544.716 2.648 1.612 4.4 2.69 5.283 1.093.867 2.326 1.317 3.714 1.317 1.4 0 2.648-.45 3.74-1.345 1.094-.882 1.948-2.48 2.552-4.779.784-2.956 1.19-7.958 1.19-15.02 0-7.063-.364-11.91-1.064-14.56-.715-2.633-1.612-4.399-2.692-5.295-1.092-.883-2.325-1.333-3.726-1.333zm0-9.57c5.844 0 10.397 2.088 13.676 6.25 3.908 4.918 5.871 13.087 5.871 24.507 0 11.378-1.977 19.56-5.914 24.55-3.25 4.104-7.79 6.15-13.633 6.15-5.843 0-10.565-2.241-14.152-6.753-3.587-4.497-5.381-12.528-5.381-24.073 0-11.336 1.976-19.492 5.912-24.465 3.252-4.106 7.792-6.166 13.62-6.166zm-36.74 60.435h-11.532v-43.48c-4.218 3.952-9.178 6.866-14.895 8.744V804.38c2.999-.982 6.278-2.846 9.808-5.592 3.532-2.76 5.956-5.968 7.26-9.64h9.36v60.435zm-56.776-50.865c-1.388 0-2.634.45-3.727 1.332-1.093.896-1.949 2.494-2.551 4.792-.784 2.984-1.19 8-1.19 15.063 0 7.062.364 11.91 1.065 14.544.714 2.648 1.61 4.4 2.69 5.283 1.093.867 2.325 1.317 3.713 1.317 1.402 0 2.649-.45 3.74-1.345 1.094-.882 1.949-2.48 2.551-4.779.785-2.956 1.192-7.958 1.192-15.02 0-7.063-.365-11.91-1.066-14.56-.715-2.633-1.611-4.399-2.69-5.295-1.094-.883-2.325-1.333-3.727-1.333zm0-9.57c5.843 0 10.397 2.088 13.676 6.25 3.909 4.918 5.87 13.087 5.87 24.507 0 11.378-1.975 19.56-5.913 24.55-3.25 4.104-7.79 6.15-13.633 6.15-5.845 0-10.565-2.241-14.152-6.753-3.587-4.497-5.382-12.528-5.382-24.073 0-11.336 1.976-19.492 5.914-24.465 3.25-4.106 7.79-6.166 13.62-6.166zm-36.739 60.435h-11.533v-43.48c-4.218 3.952-9.177 6.866-14.895 8.744V804.38c2.999-.982 6.279-2.846 9.808-5.592 3.533-2.76 5.956-5.968 7.259-9.64h9.361v60.435zm-56.778-50.865c-1.386 0-2.633.45-3.727 1.332-1.093.896-1.947 2.494-2.549 4.792-.785 2.984-1.192 8-1.192 15.063 0 7.062.365 11.91 1.064 14.544.716 2.648 1.614 4.4 2.691 5.283 1.094.867 2.327 1.317 3.713 1.317 1.402 0 2.65-.45 3.74-1.345 1.095-.882 1.95-2.48 2.553-4.779.783-2.956 1.19-7.958 1.19-15.02 0-7.063-.364-11.91-1.065-14.56-.714-2.633-1.61-4.399-2.69-5.295-1.094-.883-2.326-1.333-3.728-1.333zm0-9.57c5.843 0 10.399 2.088 13.676 6.25 3.91 4.918 5.872 13.087 5.872 24.507 0 11.378-1.976 19.56-5.913 24.55-3.25 4.104-7.792 6.15-13.635 6.15s-10.565-2.241-14.15-6.753c-3.589-4.497-5.383-12.528-5.383-24.073 0-11.336 1.976-19.492 5.914-24.465 3.252-4.106 7.79-6.166 13.62-6.166zm-36.739 60.435h-11.531v-43.48c-4.218 3.952-9.178 6.866-14.896 8.744V804.38c3-.982 6.277-2.846 9.809-5.592 3.531-2.76 5.955-5.968 7.258-9.64h9.36v60.435zm-56.777-50.865c-1.388 0-2.632.45-3.727 1.332-1.093.896-1.947 2.494-2.55 4.792-.785 2.984-1.19 8-1.19 15.063 0 7.062.364 11.91 1.064 14.544.715 2.648 1.611 4.4 2.69 5.283 1.094.867 2.325 1.317 3.713 1.317 1.402 0 2.65-.45 3.742-1.345 1.092-.882 1.946-2.48 2.55-4.779.785-2.956 1.192-7.958 1.192-15.02 0-7.063-.364-11.91-1.067-14.56-.713-2.633-1.61-4.399-2.69-5.295-1.093-.883-2.325-1.333-3.727-1.333zm0-9.57c5.844 0 10.397 2.088 13.677 6.25 3.909 4.918 5.87 13.087 5.87 24.507 0 11.378-1.976 19.56-5.913 24.55-3.25 4.104-7.79 6.15-13.634 6.15-5.843 0-10.565-2.241-14.152-6.753-3.587-4.497-5.38-12.528-5.38-24.073 0-11.336 1.975-19.492 5.913-24.465 3.251-4.106 7.79-6.166 13.62-6.166zm-36.738 60.435H788.69v-43.48c-4.218 3.952-9.179 6.866-14.896 8.744V804.38c3-.982 6.278-2.846 9.809-5.592 3.531-2.76 5.955-5.968 7.259-9.64h9.36v60.435zm-56.778-50.865c-1.387 0-2.634.45-3.726 1.332-1.094.896-1.948 2.494-2.55 4.792-.786 2.984-1.19 8-1.19 15.063 0 7.062.363 11.91 1.063 14.544.716 2.648 1.611 4.4 2.69 5.283 1.093.867 2.326 1.317 3.713 1.317 1.402 0 2.65-.45 3.742-1.345 1.092-.882 1.946-2.48 2.55-4.779.784-2.956 1.191-7.958 1.191-15.02 0-7.063-.364-11.91-1.065-14.56-.713-2.633-1.61-4.399-2.69-5.295-1.093-.883-2.326-1.333-3.728-1.333zm0-9.57c5.844 0 10.397 2.088 13.677 6.25 3.908 4.918 5.871 13.087 5.871 24.507 0 11.378-1.977 19.56-5.915 24.55-3.249 4.104-7.789 6.15-13.633 6.15-5.843 0-10.565-2.241-14.152-6.753-3.587-4.497-5.381-12.528-5.381-24.073 0-11.336 1.977-19.492 5.914-24.465 3.251-4.106 7.79-6.166 13.619-6.166zM1304.54 894.52c-1.387 0-2.633.449-3.726 1.332-1.094.897-1.948 2.495-2.55 4.792-.786 2.985-1.19 8.001-1.19 15.063 0 7.063.363 11.91 1.063 14.545.716 2.648 1.611 4.4 2.69 5.283 1.093.868 2.326 1.317 3.713 1.317 1.402 0 2.65-.449 3.742-1.345 1.093-.884 1.946-2.48 2.55-4.779 1.617-6.094 1.731-23.515.126-29.58-.713-2.633-1.61-4.4-2.69-5.296-1.093-.883-2.326-1.332-3.728-1.332zm0-9.57c5.844 0 10.397 2.09 13.677 6.251 3.908 4.917 5.871 13.087 5.871 24.506 0 11.377-1.977 19.561-5.913 24.549-3.25 4.106-7.79 6.152-13.635 6.152-5.843 0-10.565-2.241-14.152-6.753-3.587-4.498-5.381-12.527-5.381-24.073 0-11.337 1.977-19.492 5.914-24.466 3.251-4.106 7.79-6.165 13.619-6.165zm-36.738 60.436h-11.531v-43.48c-4.22 3.95-9.18 6.865-14.898 8.742v-10.467c3-.98 6.28-2.844 9.81-5.59 3.532-2.76 5.955-5.97 7.259-9.64h9.36v60.435zm-56.777-50.866c-1.388 0-2.634.449-3.728 1.332-1.092.897-1.947 2.495-2.55 4.792-.785 2.985-1.19 8.001-1.19 15.063 0 7.063.365 11.91 1.064 14.545.715 2.648 1.612 4.4 2.69 5.283 1.094.868 2.326 1.317 3.714 1.317 1.4 0 2.648-.449 3.74-1.345 1.093-.884 1.948-2.48 2.552-4.779.783-2.956 1.19-7.958 1.19-15.021 0-7.062-.364-11.91-1.065-14.559-.715-2.633-1.61-4.4-2.69-5.296-1.093-.883-2.326-1.332-3.727-1.332zm0-9.57c5.843 0 10.397 2.09 13.675 6.251 3.91 4.917 5.871 13.087 5.871 24.506 0 11.377-1.975 19.561-5.913 24.549-3.25 4.106-7.79 6.152-13.633 6.152-5.844 0-10.566-2.241-14.152-6.753-3.587-4.498-5.381-12.527-5.381-24.073 0-11.337 1.976-19.492 5.914-24.466 3.25-4.106 7.79-6.165 13.619-6.165zm-36.74 60.436h-11.532v-43.48c-4.217 3.95-9.178 6.865-14.896 8.742v-10.467c3-.98 6.279-2.844 9.81-5.59 3.53-2.76 5.954-5.97 7.258-9.64h9.36v60.435zm-56.776-50.866c-1.388 0-2.634.449-3.727 1.332-1.093.897-1.948 2.495-2.55 4.792-.785 2.985-1.191 8.001-1.191 15.063 0 7.063.363 11.91 1.064 14.545.716 2.648 1.612 4.4 2.69 5.283 1.093.868 2.326 1.317 3.714 1.317 1.4 0 2.648-.449 3.74-1.345 1.094-.884 1.948-2.48 2.552-4.779.784-2.956 1.19-7.958 1.19-15.021 0-7.062-.364-11.91-1.064-14.559-.715-2.633-1.612-4.4-2.692-5.296-1.092-.883-2.325-1.332-3.726-1.332zm0-9.57c5.844 0 10.397 2.09 13.676 6.251 3.908 4.917 5.871 13.087 5.871 24.506 0 11.377-1.977 19.561-5.914 24.549-3.25 4.106-7.79 6.152-13.633 6.152-5.843 0-10.565-2.241-14.152-6.753-3.587-4.498-5.381-12.527-5.381-24.073 0-11.337 1.976-19.492 5.912-24.466 3.252-4.106 7.792-6.165 13.62-6.165zm-36.74 60.436h-11.532v-43.48c-4.218 3.95-9.178 6.865-14.895 8.742v-10.467c2.999-.98 6.278-2.844 9.808-5.59 3.532-2.76 5.956-5.97 7.26-9.64h9.36v60.435zm-56.776-50.866c-1.388 0-2.634.449-3.727 1.332-1.093.897-1.949 2.495-2.551 4.792-.784 2.985-1.19 8.001-1.19 15.063 0 7.063.364 11.91 1.065 14.545.714 2.648 1.61 4.4 2.69 5.283 1.093.868 2.325 1.317 3.713 1.317 1.402 0 2.649-.449 3.74-1.345 1.094-.884 1.949-2.48 2.551-4.779.785-2.956 1.192-7.958 1.192-15.021 0-7.062-.365-11.91-1.066-14.559-.715-2.633-1.611-4.4-2.69-5.296-1.094-.883-2.325-1.332-3.727-1.332zm0-9.57c5.843 0 10.397 2.09 13.676 6.251 3.909 4.917 5.87 13.087 5.87 24.506 0 11.377-1.975 19.561-5.913 24.549-3.25 4.106-7.79 6.152-13.633 6.152-5.845 0-10.565-2.241-14.152-6.753-3.587-4.498-5.382-12.527-5.382-24.073 0-11.337 1.976-19.492 5.914-24.466 3.25-4.106 7.79-6.165 13.62-6.165zm-36.739 60.436h-11.533v-43.48c-4.218 3.95-9.177 6.865-14.895 8.742v-10.467c2.999-.98 6.279-2.844 9.808-5.59 3.533-2.76 5.956-5.97 7.259-9.64h9.361v60.435zm-56.778-50.866c-1.386 0-2.633.449-3.727 1.332-1.093.897-1.947 2.495-2.549 4.792-.785 2.985-1.192 8.001-1.192 15.063 0 7.063.365 11.91 1.064 14.545.716 2.648 1.614 4.4 2.691 5.283 1.094.868 2.327 1.317 3.713 1.317 1.402 0 2.65-.449 3.74-1.345 1.095-.884 1.95-2.48 2.553-4.779.783-2.956 1.19-7.958 1.19-15.021 0-7.062-.364-11.91-1.065-14.559-.714-2.633-1.61-4.4-2.69-5.296-1.094-.883-2.326-1.332-3.728-1.332zm0-9.57c5.843 0 10.399 2.09 13.676 6.251 3.91 4.917 5.872 13.087 5.872 24.506 0 11.377-1.976 19.561-5.913 24.549-3.25 4.106-7.792 6.152-13.635 6.152s-10.565-2.241-14.15-6.753c-3.589-4.498-5.383-12.527-5.383-24.073 0-11.337 1.976-19.492 5.914-24.466 3.252-4.106 7.79-6.165 13.62-6.165zm-36.739 60.436h-11.531v-43.48c-4.218 3.95-9.178 6.865-14.896 8.742v-10.467c3-.98 6.277-2.844 9.809-5.59 3.531-2.76 5.955-5.97 7.258-9.64h9.36v60.435zM836.96 894.52c-1.388 0-2.632.449-3.727 1.332-1.093.897-1.947 2.495-2.55 4.792-.785 2.985-1.19 8.001-1.19 15.063 0 7.063.364 11.91 1.064 14.545.715 2.648 1.611 4.4 2.69 5.283 1.094.868 2.325 1.317 3.713 1.317 1.402 0 2.65-.449 3.742-1.345 1.092-.884 1.946-2.48 2.55-4.779.785-2.956 1.192-7.958 1.192-15.021 0-7.062-.364-11.91-1.067-14.559-.713-2.633-1.61-4.4-2.69-5.296-1.093-.883-2.325-1.332-3.727-1.332zm0-9.57c5.844 0 10.397 2.09 13.677 6.251 3.909 4.917 5.87 13.087 5.87 24.506 0 11.377-1.976 19.561-5.913 24.549-3.25 4.106-7.79 6.152-13.634 6.152-5.843 0-10.565-2.241-14.152-6.753-3.587-4.498-5.38-12.527-5.38-24.073 0-11.337 1.975-19.492 5.913-24.466 3.251-4.106 7.79-6.165 13.62-6.165zm-36.738 60.436H788.69v-43.48c-4.218 3.95-9.179 6.865-14.896 8.742v-10.467c3-.98 6.278-2.844 9.809-5.59 3.531-2.76 5.955-5.97 7.259-9.64h9.36v60.435zm-56.778-50.866c-1.387 0-2.634.449-3.726 1.332-1.094.897-1.948 2.495-2.55 4.792-.786 2.985-1.19 8.001-1.19 15.063 0 7.063.363 11.91 1.063 14.545.716 2.648 1.611 4.4 2.69 5.283 1.093.868 2.326 1.317 3.713 1.317 1.402 0 2.65-.449 3.742-1.345 1.092-.884 1.946-2.48 2.55-4.779.784-2.956 1.191-7.958 1.191-15.021 0-7.062-.364-11.91-1.065-14.559-.713-2.633-1.61-4.4-2.69-5.296-1.093-.883-2.326-1.332-3.728-1.332zm0-9.57c5.844 0 10.397 2.09 13.677 6.251 3.908 4.917 5.871 13.087 5.871 24.506 0 11.377-1.977 19.561-5.915 24.549-3.249 4.106-7.789 6.152-13.633 6.152-5.843 0-10.565-2.241-14.152-6.753-3.587-4.498-5.381-12.527-5.381-24.073 0-11.337 1.977-19.492 5.914-24.466 3.251-4.106 7.79-6.165 13.619-6.165zm561.096 105.372c-1.387 0-2.633.449-3.726 1.332-1.094.897-1.948 2.495-2.55 4.792-.786 2.985-1.19 8-1.19 15.063 0 7.061.363 11.91 1.063 14.545.716 2.648 1.611 4.4 2.69 5.283 1.093.867 2.326 1.316 3.713 1.316 1.402 0 2.65-.45 3.742-1.344 1.093-.884 1.946-2.48 2.55-4.78 1.617-6.094 1.731-23.514.126-29.579-.713-2.635-1.61-4.4-2.69-5.296-1.093-.883-2.326-1.332-3.728-1.332zm0-9.57c5.844 0 10.397 2.088 13.677 6.25 3.908 4.918 5.871 13.088 5.871 24.507 0 11.377-1.977 19.56-5.913 24.549-3.25 4.105-7.79 6.152-13.635 6.152-5.843 0-10.565-2.242-14.152-6.755-3.587-4.497-5.381-12.526-5.381-24.072 0-11.336 1.977-19.491 5.914-24.465 3.251-4.106 7.79-6.166 13.619-6.166zm-36.738 60.435h-11.531v-43.48c-4.22 3.951-9.18 6.866-14.898 8.743v-10.466c3-.981 6.28-2.845 9.81-5.591 3.532-2.762 5.955-5.97 7.259-9.64h9.36v60.434zm-56.777-50.865c-1.388 0-2.634.449-3.728 1.332-1.092.897-1.947 2.495-2.55 4.792-.785 2.985-1.19 8-1.19 15.063 0 7.061.365 11.91 1.064 14.545.715 2.648 1.612 4.4 2.69 5.283 1.094.867 2.326 1.316 3.714 1.316 1.4 0 2.648-.45 3.74-1.344 1.093-.884 1.948-2.48 2.552-4.78.783-2.957 1.19-7.959 1.19-15.02 0-7.062-.364-11.91-1.065-14.559-.715-2.635-1.61-4.4-2.69-5.296-1.093-.883-2.326-1.332-3.727-1.332zm0-9.57c5.843 0 10.397 2.088 13.675 6.25 3.91 4.918 5.871 13.088 5.871 24.507 0 11.377-1.975 19.56-5.913 24.549-3.25 4.105-7.79 6.152-13.633 6.152-5.844 0-10.566-2.242-14.152-6.755-3.587-4.497-5.381-12.526-5.381-24.072 0-11.336 1.976-19.491 5.914-24.465 3.25-4.106 7.79-6.166 13.619-6.166zm-36.74 60.435h-11.532v-43.48c-4.217 3.951-9.178 6.866-14.896 8.743v-10.466c3-.981 6.279-2.845 9.81-5.591 3.53-2.762 5.954-5.97 7.258-9.64h9.36v60.434zm-56.776-50.865c-1.388 0-2.634.449-3.727 1.332-1.093.897-1.948 2.495-2.55 4.792-.785 2.985-1.191 8-1.191 15.063 0 7.061.363 11.91 1.064 14.545.716 2.648 1.612 4.4 2.69 5.283 1.093.867 2.326 1.316 3.714 1.316 1.4 0 2.648-.45 3.74-1.344 1.094-.884 1.948-2.48 2.552-4.78.784-2.957 1.19-7.959 1.19-15.02 0-7.062-.364-11.91-1.064-14.559-.715-2.635-1.612-4.4-2.692-5.296-1.092-.883-2.325-1.332-3.726-1.332zm0-9.57c5.844 0 10.397 2.088 13.676 6.25 3.908 4.918 5.871 13.088 5.871 24.507 0 11.377-1.977 19.56-5.914 24.549-3.25 4.105-7.79 6.152-13.633 6.152-5.843 0-10.565-2.242-14.152-6.755-3.587-4.497-5.381-12.526-5.381-24.072 0-11.336 1.976-19.491 5.912-24.465 3.252-4.106 7.792-6.166 13.62-6.166zm-36.74 60.435h-11.532v-43.48c-4.218 3.951-9.178 6.866-14.895 8.743v-10.466c2.999-.981 6.278-2.845 9.808-5.591 3.532-2.762 5.956-5.97 7.26-9.64h9.36v60.434zm-56.776-50.865c-1.388 0-2.634.449-3.727 1.332-1.093.897-1.949 2.495-2.551 4.792-.784 2.985-1.19 8-1.19 15.063 0 7.061.364 11.91 1.065 14.545.714 2.648 1.61 4.4 2.69 5.283 1.093.867 2.325 1.316 3.713 1.316 1.402 0 2.649-.45 3.74-1.344 1.094-.884 1.949-2.48 2.551-4.78.785-2.957 1.192-7.959 1.192-15.02 0-7.062-.365-11.91-1.066-14.559-.715-2.635-1.611-4.4-2.69-5.296-1.094-.883-2.325-1.332-3.727-1.332zm0-9.57c5.843 0 10.397 2.088 13.676 6.25 3.909 4.918 5.87 13.088 5.87 24.507 0 11.377-1.975 19.56-5.913 24.549-3.25 4.105-7.79 6.152-13.633 6.152-5.845 0-10.565-2.242-14.152-6.755-3.587-4.497-5.382-12.526-5.382-24.072 0-11.336 1.976-19.491 5.914-24.465 3.25-4.106 7.79-6.166 13.62-6.166zm-36.739 60.435h-11.533v-43.48c-4.218 3.951-9.177 6.866-14.895 8.743v-10.466c2.999-.981 6.279-2.845 9.808-5.591 3.533-2.762 5.956-5.97 7.259-9.64h9.361v60.434zm-56.778-50.865c-1.386 0-2.633.449-3.727 1.332-1.093.897-1.947 2.495-2.549 4.792-.785 2.985-1.192 8-1.192 15.063 0 7.061.365 11.91 1.064 14.545.716 2.648 1.614 4.4 2.691 5.283 1.094.867 2.327 1.316 3.713 1.316 1.402 0 2.65-.45 3.74-1.344 1.095-.884 1.95-2.48 2.553-4.78.783-2.957 1.19-7.959 1.19-15.02 0-7.062-.364-11.91-1.065-14.559-.714-2.635-1.61-4.4-2.69-5.296-1.094-.883-2.326-1.332-3.728-1.332zm0-9.57c5.843 0 10.399 2.088 13.676 6.25 3.91 4.918 5.872 13.088 5.872 24.507 0 11.377-1.976 19.56-5.913 24.549-3.25 4.105-7.792 6.152-13.635 6.152s-10.565-2.242-14.15-6.755c-3.589-4.497-5.383-12.526-5.383-24.072 0-11.336 1.976-19.491 5.914-24.465 3.252-4.106 7.79-6.166 13.62-6.166zm-36.739 60.435h-11.531v-43.48c-4.218 3.951-9.178 6.866-14.896 8.743v-10.466c3-.981 6.277-2.845 9.809-5.591 3.531-2.762 5.955-5.97 7.258-9.64h9.36v60.434zm-56.777-50.865c-1.388 0-2.632.449-3.727 1.332-1.093.897-1.947 2.495-2.55 4.792-.785 2.985-1.19 8-1.19 15.063 0 7.061.364 11.91 1.064 14.545.715 2.648 1.611 4.4 2.69 5.283 1.094.867 2.325 1.316 3.713 1.316 1.402 0 2.65-.45 3.742-1.344 1.092-.884 1.946-2.48 2.55-4.78.785-2.957 1.192-7.959 1.192-15.02 0-7.062-.364-11.91-1.067-14.559-.713-2.635-1.61-4.4-2.69-5.296-1.093-.883-2.325-1.332-3.727-1.332zm0-9.57c5.844 0 10.397 2.088 13.677 6.25 3.909 4.918 5.87 13.088 5.87 24.507 0 11.377-1.976 19.56-5.913 24.549-3.25 4.105-7.79 6.152-13.634 6.152-5.843 0-10.565-2.242-14.152-6.755-3.587-4.497-5.38-12.526-5.38-24.072 0-11.336 1.975-19.491 5.913-24.465 3.251-4.106 7.79-6.166 13.62-6.166zm-36.738 60.435H788.69v-43.48c-4.218 3.951-9.179 6.866-14.896 8.743v-10.466c3-.981 6.278-2.845 9.809-5.591 3.531-2.762 5.955-5.97 7.259-9.64h9.36v60.434zm-56.778-50.865c-1.387 0-2.634.449-3.726 1.332-1.094.897-1.948 2.495-2.55 4.792-.786 2.985-1.19 8-1.19 15.063 0 7.061.363 11.91 1.063 14.545.716 2.648 1.611 4.4 2.69 5.283 1.093.867 2.326 1.316 3.713 1.316 1.402 0 2.65-.45 3.742-1.344 1.092-.884 1.946-2.48 2.55-4.78.784-2.957 1.191-7.959 1.191-15.02 0-7.062-.364-11.91-1.065-14.559-.713-2.635-1.61-4.4-2.69-5.296-1.093-.883-2.326-1.332-3.728-1.332zm0-9.57c5.844 0 10.397 2.088 13.677 6.25 3.908 4.918 5.871 13.088 5.871 24.507 0 11.377-1.977 19.56-5.915 24.549-3.249 4.105-7.789 6.152-13.633 6.152-5.843 0-10.565-2.242-14.152-6.755-3.587-4.497-5.381-12.526-5.381-24.072 0-11.336 1.977-19.491 5.914-24.465 3.251-4.106 7.79-6.166 13.619-6.166zm0-287.403c5.844 0 10.397 2.087 13.677 6.249 3.908 4.918 5.871 13.086 5.871 24.507 0 11.377-1.977 19.56-5.915 24.549-3.249 4.105-7.789 6.15-13.633 6.15-5.843 0-10.565-2.24-14.152-6.753-3.587-4.497-5.381-12.526-5.381-24.073 0-11.336 1.977-19.492 5.914-24.465 3.251-4.106 7.79-6.164 13.619-6.164z" style="fill:#424242"/></g></svg>