<svg xmlns="http://www.w3.org/2000/svg" xml:space="preserve" width="2048" height="2048" style="shape-rendering:geometricPrecision;text-rendering:geometricPrecision;image-rendering:optimizeQuality;fill-rule:evenodd;clip-rule:evenodd"><defs><clipPath id="id0"><path d="M1024-.001c565.541 0 1024 458.46 1024 1024s-458.461 1024-1024 1024c-565.541 0-1024-458.461-1024-1024 0-565.541 458.461-1024 1024-1024z"/></clipPath><style>.fil17{fill:#0277bd}.fil13{fill:#558b2f}.fil1{fill:#5664b0}.fil8{fill:#6d4c41}.fil10{fill:#ffb74d}.fil6{fill:#ffd54f}.fil7{fill:#ffe082}</style></defs><g id="Layer_x0020_1"><path d="M1024-.001c565.541 0 1024 458.46 1024 1024s-458.461 1024-1024 1024c-565.541 0-1024-458.461-1024-1024 0-565.541 458.461-1024 1024-1024z" style="fill:#7986cb"/><g style="clip-path:url(#id0)"><g id="_385673488"><path id="_2854583601" class="fil1" d="M1470.08 503.932 2605.97 1639.81l4.13 5.02 3.89 5.18 3.65 5.33 3.43 5.43 3.19 5.53 2.96 5.59 2.73 5.64 2.51 5.66 2.28 5.65 2.06 5.63 1.84 5.57 1.62 5.5 1.4 5.4 1.18 5.28.98 5.14.76 4.96.55 4.77.34 4.56L1509.59 599.765l-.34-4.554-.55-4.77-.76-4.965-.98-5.134-1.18-5.281-1.41-5.401-1.61-5.501-1.84-5.575-2.06-5.627-2.28-5.654-2.51-5.658-2.73-5.638-2.96-5.594-3.19-5.526-3.43-5.434-3.65-5.321-3.9-5.182z"/><path id="_285458504" class="fil1" d="M1510.52 600.628 2646.4 1736.51l.85 1.06.76 1.24.67 1.41.58 1.58.49 1.72.4 1.87.3 2 .21 2.12.1 2.22.01 2.32-.1 2.41-.21 2.49-.31 2.54-.43 2.61-.53 2.64L1513.3 630.862l.54-2.647.42-2.603.32-2.549.2-2.485.1-2.409v-2.322l-.1-2.224-.21-2.116-.3-1.997-.4-1.869-.49-1.727-.58-1.575-.68-1.414-.76-1.24z"/><path id="_285458816" class="fil1" d="M1513.3 630.862 2649.19 1766.74l-.73 2.95-.82 2.83-.93 2.71-1 2.58-1.09 2.42-1.15 2.26-1.2 2.09-1.26 1.9-1.3 1.7-1.33 1.49-1.35 1.27-1.36 1.02-1.37.78-1.35.51-1.35.24-1.32-.05L1494.4 657.554l1.32.052 1.34-.236 1.36-.512 1.37-.776 1.36-1.027 1.35-1.264 1.33-1.489 1.3-1.701 1.25-1.901 1.21-2.088 1.15-2.263 1.09-2.425 1-2.574.92-2.709.83-2.835z"/><path id="_285459368" class="fil1" d="M1494.4 657.554 2630.28 1793.44l-1.04 3.65-1.11 3.63-1.2 3.61-1.27 3.59-1.34 3.56-1.42 3.53-1.49 3.51-1.56 3.47-1.62 3.43-1.7 3.4-1.76 3.35-1.83 3.31-1.9 3.26-1.95 3.21-2.02 3.16-2.08 3.1-2.14 3.04-2.19 2.98-2.26 2.92-2.3 2.85-2.36 2.79-2.42 2.7-2.46 2.64-2.52 2.56-2.57 2.47-2.61 2.4-2.66 2.3-2.7 2.22-2.75 2.13-2.79 2.03-2.84 1.93-2.87 1.84L1428.67 752.128l2.87-1.836 2.83-1.936 2.8-2.031 2.74-2.127 2.71-2.218 2.66-2.307 2.61-2.393 2.57-2.477 2.51-2.556 2.47-2.635 2.41-2.709 2.37-2.782 2.3-2.851 2.26-2.918 2.19-2.983 2.14-3.043 2.08-3.102 2.02-3.157 1.95-3.21 1.89-3.261 1.83-3.308 1.77-3.352 1.69-3.396 1.63-3.434 1.56-3.47 1.49-3.504 1.42-3.535 1.34-3.563 1.27-3.589 1.2-3.611 1.11-3.631z"/><path id="_285459200" class="fil1" d="M1428.67 752.128 2564.55 1888.01v23.3L1428.67 775.423z"/><path id="_285459152" class="fil1" d="M1457.23 803.734 2593.11 1939.62l1.31 14.16L1458.54 817.899z"/><path id="_285458864" class="fil1" d="m1271.79 657.57 1135.88 1135.88-1.31.03-1.34-.26-1.35-.53-1.36-.79-1.35-1.03-1.34-1.27L1263.73 653.713l1.34 1.271 1.36 1.036 1.36.789 1.35.529 1.34.258z"/><path id="_285459224" class="fil1" d="M1565.01 953.863 2700.89 2089.74h-106.25L1458.76 953.863z"/><path id="_285458912" class="fil1" d="M636.113 951.01 1771.99 2086.89h-153.12L482.986 951.01z"/><path id="_285459008" class="fil1" d="M618.463 750.453 1754.34 1886.34l-2.85-1.83-2.82-1.92-2.77-2.02-2.74-2.12-2.69-2.2-2.64-2.3-2.6-2.37-2.55-2.47L596.801 733.232l2.55 2.462 2.598 2.379 2.645 2.293 2.688 2.204 2.733 2.114 2.776 2.021 2.817 1.923z"/><path id="_285459512" class="fil1" d="m948.51 1429.63 1135.88 1135.88-17.01-4.5-16.71-5.2-16.41-5.87-16.08-6.53-15.74-7.16-15.39-7.79-15.01-8.4-14.62-9-14.22-9.56-13.79-10.13-13.35-10.67-12.91-11.19L767.273 1333.62l12.901 11.2 13.355 10.67 13.794 10.13 14.216 9.56 14.622 8.99 15.011 8.4 15.385 7.79 15.741 7.17 16.082 6.53 16.407 5.87 16.716 5.19z"/><path id="_285459776" class="fil1" d="M1224.62 1584 2360.5 2719.88h-401.24L823.377 1584z"/><path id="_285459560" class="fil1" d="M553.111 656.444 1688.99 1792.33l-1.3.02-1.33-.26-1.35-.53-1.35-.78-1.34-1.03-1.34-1.27L545.102 652.602l1.333 1.264 1.345 1.031 1.35.785 1.344.528 1.33.258z"/><path id="_285459656" class="fil1" d="M751.12 501.069 1887 1636.95l4.41 4.77 4.14 4.95 3.87 5.11 3.6 5.25 3.33 5.38 3.06 5.48 2.8 5.57 2.52 5.63 2.27 5.69 1.99 5.7 1.73 5.72 1.46 5.71 1.2 5.68.94 5.63.67 5.56.41 5.47.15 5.37-.12 5.25L789.55 598.987l.114-5.245-.146-5.371-.41-5.475-.672-5.562-.935-5.629-1.199-5.679-1.465-5.707-1.729-5.718-1.994-5.708-2.26-5.681-2.528-5.634-2.794-5.567-3.063-5.481-3.331-5.378-3.6-5.253-3.869-5.112-4.138-4.949z"/><path id="_285459440" class="fil1" d="M790.47 599.847 1926.35 1735.73l.84 1.05.75 1.24.67 1.4.58 1.57.48 1.72.4 1.85.3 1.99.2 2.1.1 2.21.01 2.31-.1 2.39-.21 2.47-.31 2.53-.42 2.58-.53 2.63L793.224 629.891l.533-2.629.42-2.586.313-2.532.205-2.468.1-2.391-.002-2.307-.104-2.21-.203-2.103-.3-1.985-.394-1.856-.487-1.718-.578-1.566-.666-1.406-.754-1.235z"/><path id="_285459584" class="fil1" d="M793.224 629.891 1929.11 1765.77l-.72 2.93-.83 2.82-.91 2.7-1 2.55-1.08 2.42-1.15 2.25-1.2 2.07-1.25 1.89-1.29 1.69-1.32 1.48-1.34 1.26-1.36 1.02-1.36.77-1.35.51-1.33.23-1.32-.05L774.423 656.426l1.313.054 1.335-.234 1.352-.508 1.357-.77 1.354-1.019 1.343-1.257 1.321-1.48 1.291-1.691 1.251-1.891 1.202-2.077 1.146-2.25 1.077-2.412 1.001-2.558.917-2.695.822-2.818z"/><path id="_285452384" class="fil1" d="M774.423 656.426 1910.3 1792.31l-1.03 3.63-1.11 3.61-1.18 3.58-1.27 3.57-1.33 3.55-1.41 3.51-1.48 3.48-1.55 3.45-1.62 3.42-1.69 3.37-1.75 3.33-1.82 3.29-1.88 3.24-1.94 3.19-2.01 3.14-2.07 3.09-2.12 3.02-2.18 2.97-2.24 2.9-2.3 2.83-2.34 2.77-2.4 2.69-2.45 2.62-2.51 2.54-2.55 2.46-2.59 2.38-2.65 2.3-2.69 2.2-2.73 2.11-2.77 2.03-2.82 1.92-2.86 1.82L709.081 750.442l2.856-1.824 2.817-1.925 2.776-2.02 2.732-2.115 2.689-2.205 2.644-2.293 2.598-2.379 2.55-2.462 2.501-2.541 2.452-2.619 2.4-2.694 2.347-2.765 2.294-2.834 2.239-2.901 2.183-2.965 2.125-3.025 2.065-3.084 2.006-3.139 1.945-3.191 1.882-3.241 1.817-3.288 1.753-3.333 1.687-3.375 1.619-3.414 1.55-3.45 1.48-3.483 1.409-3.514 1.335-3.542 1.262-3.569 1.187-3.589 1.11-3.609z"/><path id="_285452504" class="fil1" d="M709.081 750.442 1844.96 1886.32v23.17L709.081 773.61z"/><path id="_285451904" class="fil1" d="M709.081 773.61 1844.96 1909.49l2.36 2.34L711.438 775.945z"/><path id="_285452456" class="fil1" d="M1458.76 953.863 2594.64 2089.74l.35 2.15.35 2.14.34 2.14.32 2.16.31 2.15.3 2.16.29 2.16.28 2.16.27 2.17.26 2.17.25 2.18.23 2.17.23 2.19.21 2.18.2 2.19.19 2.19.18 2.2.17 2.19.15 2.2.15 2.21.13 2.21.12 2.21.12 2.21.1 2.21.08 2.22.08 2.23.06 2.22.05 2.23.05 2.23.03 2.23.01 2.24.01 2.24-.44 19.44-1.33 19.2-2.17 18.96-3.02 18.69-3.83 18.4-4.63 18.1-5.41 17.77-6.17 17.43-6.91 17.06-7.63 16.68-8.33 16.27-9.01 15.86-9.68 15.41-10.32 14.95-10.94 14.47-11.55 13.97-12.14 13.45-12.7 12.91-13.24 12.35-13.77 11.77-14.28 11.18-14.77 10.56-15.24 9.93-15.68 9.27-16.12 8.6-16.53 7.9-16.91 7.19-17.29 6.46-17.64 5.71-17.98 4.93-18.29 4.15-18.58 3.33L1112.1 1436.35l18.58-3.33 18.29-4.15 17.98-4.93 17.64-5.71 17.29-6.46 16.91-7.19 16.53-7.9 16.12-8.6 15.68-9.27 15.24-9.93 14.77-10.56 14.28-11.18 13.77-11.77 13.24-12.36 12.7-12.91 12.14-13.45 11.54-13.97 10.95-14.46 10.32-14.95 9.67-15.41 9.02-15.86 8.33-16.27 7.63-16.68 6.91-17.06 6.17-17.43 5.41-17.77 4.63-18.1 3.83-18.4 3.02-18.69 2.17-18.96 1.32-19.21.45-19.43-.01-2.24-.02-2.24-.02-2.23-.05-2.23-.05-2.23-.06-2.23-.08-2.22-.09-2.22-.1-2.21-.11-2.22-.12-2.207-.13-2.208-.15-2.204-.15-2.2-.17-2.198-.18-2.195-.19-2.192-.2-2.187-.22-2.185-.22-2.182-.24-2.178-.24-2.174-.26-2.172-.27-2.167-.28-2.165-.29-2.162-.3-2.158-.31-2.153-.33-2.151-.33-2.147-.35-2.142z"/><path id="_285452288" class="fil1" d="m1168.77 1470.55 1135.88 1135.88 2.72 2.62 2.62 2.76 2.54 2.88 2.46 3.01 2.38 3.13 2.3 3.26 2.23 3.36 2.17 3.48 2.11 3.6 2.05 3.7 2 3.8 1.95 3.91 1.9 4 1.87 4.1 1.84 4.2 1.8 4.28 1.78 4.37 1.76 4.46 1.74 4.54 1.72 4.61 1.72 4.69 1.72 4.77 1.72 4.83 1.72 4.9 1.73 4.96 1.75 5.02 1.76 5.08 1.79 5.13L1224.62 1584l-1.79-5.13-1.76-5.08-1.75-5.03-1.73-4.96-1.72-4.9-1.72-4.83-1.72-4.76-1.72-4.69-1.73-4.61-1.74-4.54-1.75-4.46-1.78-4.37-1.8-4.28-1.84-4.2-1.87-4.1-1.9-4-1.95-3.91-2-3.81-2.05-3.7-2.11-3.59-2.17-3.48-2.23-3.37-2.31-3.25-2.37-3.13-2.46-3.01-2.54-2.88-2.63-2.76z"/><path id="_285452192" class="fil1" d="M1521.52 858.498 2657.4 1994.38l2.23 2.73 2.16 2.84 2.09 2.94 2.02 3.06 1.97 3.16 1.91 3.25 1.86 3.36 1.81 3.45 1.77 3.54 1.72 3.63 1.7 3.72 1.66 3.8 1.64 3.88 1.61 3.97 1.59 4.04 1.58 4.11 1.57 4.18 1.55 4.26 1.56 4.31 1.56 4.38 1.56 4.44 1.57 4.5 1.58 4.56 1.6 4.6 1.62 4.65L1565.01 953.863l-1.62-4.655-1.6-4.605-1.58-4.553-1.57-4.498-1.56-4.441-1.56-4.381-1.56-4.317-1.56-4.252-1.56-4.184-1.58-4.113-1.59-4.039-1.62-3.964-1.63-3.884-1.66-3.803-1.7-3.718-1.73-3.632-1.76-3.541-1.82-3.45-1.85-3.354-1.92-3.256-1.96-3.157-2.03-3.054-2.08-2.946-2.16-2.84z"/><path id="_385673464" class="fil1" d="M1256.7 599.781c-2.633-55.539 39.567-135.782 129.64-135.782 82.932 0 120.696 88.434 123.254 135.767 5.165 4.06 6.872 16.884 3.711 31.096-3.56 15.98-11.948 27.762-18.902 26.693-10.66 38.996-34.876 75.537-65.733 94.573v23.295l28.557 28.311 1.31 14.165c13.37 6.17 28.186 14.27 45.065 24.84 30.822 19.3 43.995 61.221 61.413 111.124h-106.257a420.116 420.116 0 0 1 5.871 70.135c0 208.46-152.818 381.17-352.527 412.354 13.445 6.48 28.21 14.7 44.782 25.076 33.997 21.288 48.526 67.528 67.738 122.573H823.378c19.305-54.84 34.031-100.739 67.662-122.573 21.998-14.283 40.746-24.544 57.471-31.798-182.909-44.34-318.757-209.092-318.757-405.632 0-24.898 2.182-49.287 6.36-72.987H482.99c17.398-49.427 30.672-90.797 60.982-110.476 16.714-10.852 31.347-19.127 44.56-25.375l1.239-13.404 28.57-28.32.125.077v-23.06c-30.676-18.922-54.753-55.243-65.352-94.008-6.892.902-15.153-10.764-18.668-26.554-3.142-14.126-1.445-26.872 3.686-30.913C540.674 551.921 578.215 464 660.668 464c89.548 0 131.502 79.773 128.884 134.988 5.123 4.051 6.814 16.788 3.674 30.904-3.54 15.891-11.886 27.608-18.8 26.535-10.595 38.768-34.666 75.09-65.343 94.016v23.168l2.357 2.335c76.039-102.755 198.108-169.386 335.753-169.386 85.334 0 164.677 25.619 230.777 69.574a182.695 182.695 0 0 1-6.176-18.564c-6.934.922-15.248-10.817-18.786-26.708-3.157-14.194-1.456-27.004 3.692-31.08z"/></g></g><path d="M1024-.001c565.541 0 1024 458.46 1024 1024s-458.461 1024-1024 1024c-565.541 0-1024-458.461-1024-1024 0-565.541 458.461-1024 1024-1024z" style="fill:none"/><path d="M1047.19 582.56c-8.421 0-16.147 4.372-20.525 11.556-9.677 15.974 1.866 36.444 20.525 36.444l2.548.008 2.543.024 2.542.04 2.534.057 2.53.072 2.53.087 2.52.104 2.52.12 2.515.135 2.505.151 2.507.168 2.505.183 2.497.196 2.49.214 2.487.228 2.479.246 2.483.26 2.586.287c19.59 2.094 33.267-19.088 23.236-36.076-3.888-6.585-10.508-10.78-18.086-11.648l-2.587-.287-2.775-.29-2.787-.275-2.79-.256-2.796-.24-2.8-.222-2.797-.204-2.809-.187-2.817-.17-2.816-.151-2.82-.135-2.831-.115-2.828-.1-2.837-.081-2.84-.061-2.841-.045-2.848-.029-2.852-.008zm-74.22 54.986c19.324-3.745 26.161-27.777 11.77-41.197-5.722-5.213-13.194-7.36-20.81-5.943l-.282.053-2.697.526-2.696.542-2.696.56-2.686.576-2.681.593-2.674.608-2.67.625-2.662.642-2.651.656-2.648.672-2.644.689-2.632.704-2.635.72-2.622.737-2.616.751-2.61.77-2.603.781-2.596.8-1.268.399c-8.639 2.765-14.771 9.893-16.388 18.789-2.924 17.836 13.684 32.336 30.922 26.958l.99-.312 2.313-.712 2.318-.697 2.322-.684 2.33-.669 2.337-.656 2.337-.64 2.352-.629 2.35-.613 2.36-.599 2.368-.586 2.37-.57 2.374-.556 2.38-.542 2.387-.527 2.392-.513 2.395-.498 2.404-.483 2.414-.472.283-.053zm-163.68 73.06c15.531-11.947 11.004-36.437-7.8-42.063-7.46-2.15-15.22-.74-21.406 3.972l-1.256.958-2.1 1.62-2.087 1.63-2.08 1.645-2.07 1.657-2.057 1.666-2.05 1.681-2.039 1.694-2.028 1.704-2.014 1.714-2.006 1.727-2 1.742-1.987 1.752-1.976 1.764-1.964 1.776-1.952 1.785-1.94 1.796-1.932 1.807-1.925 1.824-1.057 1.013c-15.293 14.969-5.17 40.741 16.237 41.268 6.43.105 12.45-2.278 17.094-6.725l.849-.815 1.71-1.62 1.726-1.616 1.735-1.605 1.744-1.596 1.752-1.583 1.76-1.572 1.77-1.561 1.778-1.549 1.791-1.542 1.802-1.532 1.808-1.52 1.818-1.51 1.824-1.496 1.84-1.49 1.843-1.477 1.853-1.465 1.865-1.457 1.871-1.443 1.257-.958zM694.796 848.835c3.86-7.855 3.24-16.858-1.609-24.131-10.4-15.222-33.093-13.659-41.376 2.767l-.161.321-1.185 2.403-1.169 2.408-1.156 2.42-1.14 2.422-1.127 2.431-1.115 2.446-1.096 2.445-1.084 2.457-1.07 2.467-1.056 2.476-1.038 2.476-1.025 2.485-1.013 2.5-.995 2.505-.98 2.508-.966 2.515-.952 2.525-.937 2.538-.7 1.93c-6.628 18.677 10.782 36.854 29.743 31.02 7.252-2.314 12.834-7.636 15.433-14.8l.6-1.652.83-2.25.849-2.249.86-2.245.875-2.237.887-2.229.899-2.218.914-2.218.927-2.212.938-2.2.952-2.193.966-2.19.98-2.185.988-2.17 1.006-2.168 1.017-2.165 1.029-2.148 1.041-2.146 1.055-2.138.16-.321zm-41.041 174.568c0-8.421-4.373-16.147-11.556-20.525-15.975-9.677-36.444 1.866-36.444 20.525l-.001.595.008 2.852.028 2.848.045 2.84.061 2.841.082 2.837.1 2.828.115 2.83.135 2.821.15 2.816.17 2.817.187 2.809.205 2.798.222 2.799.24 2.796.256 2.79.274 2.787.29 2.775.239 2.145c.95 8.3 6.038 15.342 13.547 18.96 17.118 8.018 36.147-5.66 34.144-24.407l-.206-1.847-.26-2.483-.245-2.48-.228-2.485-.214-2.491-.196-2.497-.183-2.505-.168-2.507-.151-2.505-.135-2.515-.12-2.52-.104-2.52-.088-2.53-.072-2.53-.056-2.533-.04-2.543-.024-2.543-.008-2.548v-.595zm40.513 174.692c-8.67-17.191-32.752-17.875-42.367-1.168-3.947 7.038-4.18 15.285-.618 22.532l.367.745 1.199 2.392 1.21 2.38 1.226 2.378 1.24 2.367 1.254 2.359 1.27 2.353 1.277 2.336 1.296 2.336 1.31 2.324 1.32 2.315 1.34 2.31 1.346 2.296 1.362 2.286 1.375 2.28 1.39 2.272 1.404 2.263 1.416 2.254 1.427 2.24 1.04 1.612c9.359 14.298 30.009 14.61 39.842.624 5.553-8.093 5.741-18.513.41-26.77l-.882-1.37-1.275-2.002-1.263-2.008-1.248-2.015-1.237-2.022-1.226-2.031-1.215-2.043-1.205-2.05-1.188-2.052-1.179-2.065-1.166-2.07-1.151-2.076-1.146-2.093-1.128-2.09-1.116-2.101-1.105-2.11-1.09-2.115-1.082-2.126-1.067-2.132-.367-.745zm113.962 138.486c-13.314-10.017-32.334-3.901-37.4 11.963-2.957 9.776.272 20.094 8.423 26.305l1.685 1.283 2.12 1.595 2.13 1.583 2.137 1.568 2.149 1.558 2.159 1.545 2.17 1.533 2.175 1.517 2.184 1.505 2.202 1.498 2.202 1.478 2.216 1.468 2.23 1.458 2.232 1.44 2.24 1.427 2.258 1.42 2.26 1.4 2.268 1.388 2.283 1.377.68.407a24.008 24.008 0 0 0 23.932.29c16.136-9.048 16.392-32.186.499-41.61l-.437-.26-2.028-1.224-2.026-1.24-2.018-1.25-2.005-1.26-2.002-1.275-1.993-1.286-1.98-1.294-1.975-1.31-1.969-1.321-1.953-1.328-1.953-1.345-1.944-1.356-1.93-1.365-1.926-1.377-1.915-1.388-1.908-1.401-1.898-1.41-1.889-1.422-1.685-1.284zm163.572 73.644c-16.896-3.143-31.373 11.571-28.028 28.436 2.052 9.547 9.376 16.842 18.987 18.704l.888.173 2.711.511 2.718.495 2.724.477 2.723.46 2.727.444 2.743.427 2.744.41 2.742.393 2.76.377 2.757.36 2.763.342 2.773.326 2.77.308 2.779.29 2.786.275 2.79.256 2.795.24 2.554.203c19.005 1.45 32.022-18.861 22.819-35.553-3.902-7.077-11.132-11.696-19.184-12.31l-2.248-.177-2.491-.214-2.485-.228-2.482-.246-2.48-.26-2.476-.275-2.466-.288-2.465-.307-2.46-.319-2.45-.337-2.454-.35-2.444-.365-2.433-.38-2.439-.398-2.433-.41-2.421-.425-2.416-.438-2.411-.455-.887-.172zm179.267-6.641c-12.386 3.511-19.848 15.916-16.976 28.493 3.048 13.35 16.63 21.39 29.807 17.759l1.506-.413 2.621-.735 2.615-.752 2.61-.767 2.605-.783 2.597-.8 2.585-.813 2.584-.83 2.578-.844 2.57-.863 2.562-.875 2.55-.89 2.546-.905 2.54-.921 2.539-.938 2.525-.952 2.514-.965 2.51-.98 2.504-.996.47-.191c9.444-3.903 15.388-13.186 14.898-23.402-.938-16.608-17.633-27.226-33.058-21.031l-.19.078-2.228.887-2.237.874-2.245.86-2.25.849-2.25.831-2.26.82-2.272.808-2.277.793-2.282.781-2.286.765-2.291.753-2.298.738-2.31.725-2.31.712-2.317.696-2.324.685-2.332.669-2.337.657-1.506.413zm157.589-85.594c-12.51 11.35-9.877 31.533 5.172 39.261 8.863 4.472 19.51 3.089 26.904-3.551l1.314-1.172 1.964-1.776 1.952-1.785 1.94-1.796 1.932-1.807 1.925-1.824 1.91-1.833 1.9-1.844 1.886-1.854 1.878-1.866 1.866-1.878 1.855-1.886 1.843-1.9 1.834-1.91 1.823-1.926 1.807-1.931 1.797-1.94 1.784-1.953 1.777-1.964.875-.982c8.817-10.032 7.904-25.154-2.143-33.982-10.024-8.709-24.9-7.741-33.763 2.128l-.679.76-1.582 1.751-1.596 1.745-1.605 1.735-1.616 1.725-1.62 1.71-1.635 1.704-1.643 1.693-1.656 1.686-1.663 1.675-1.675 1.663-1.685 1.655-1.694 1.643-1.703 1.635-1.71 1.62-1.726 1.616-1.735 1.605-1.744 1.596-1.752 1.583-1.313 1.171zm103.446-146.62c-3.22 8.015-1.887 17.024 3.432 23.811 11.439 14.45 34.25 11.16 41.114-5.932l.357-.88.996-2.505.98-2.509.965-2.514.952-2.526.938-2.538.92-2.54.906-2.546.89-2.55.875-2.562.863-2.57.844-2.578.83-2.584.813-2.586.8-2.597.783-2.604.767-2.61.752-2.615.735-2.621.298-1.082c4.962-18.535-12.573-34.995-30.787-29.028-7.706 2.657-13.378 8.62-15.548 16.494l-.215.784-.657 2.338-.669 2.331-.685 2.324-.696 2.317-.712 2.311-.725 2.31-.738 2.298-.753 2.29-.765 2.286-.78 2.282-.794 2.277-.808 2.272-.82 2.261-.831 2.25-.848 2.25-.862 2.245-.874 2.237-.887 2.228-.356.88zm27.401-177.326c1.033 13.527 13.035 23.495 26.52 22.042 12.873-1.387 22.328-12.774 21.343-25.68l-.025-.344-.222-2.8-.24-2.795-.256-2.791-.274-2.786-.29-2.776-.308-2.773-.326-2.772-.343-2.763-.359-2.758-.377-2.759-.393-2.742-.41-2.743-.427-2.745-.445-2.728-.459-2.723-.477-2.72-.495-2.72-.511-2.713-.088-.443c-2.996-14.869-18.672-23.283-32.715-17.521-10.615 4.354-16.546 15.615-14.37 26.843l.032.164.455 2.41.438 2.415.425 2.423.41 2.432.397 2.438.38 2.433.365 2.445.351 2.454.337 2.45.319 2.46.307 2.465.288 2.465.275 2.475.26 2.483.246 2.48.228 2.486.213 2.49.196 2.497.025.345zm-53.958-170.94c4.652 7.73 13.06 12.135 22.057 11.622 18-1.18 28.301-20.805 19.116-36.296l-.637-1.07-1.377-2.283-1.389-2.27-1.4-2.259-1.42-2.257-1.426-2.24-1.442-2.235-1.458-2.229-1.464-2.21-1.479-2.205-1.499-2.203-1.506-2.184-1.516-2.176-1.536-2.172-1.542-2.155-1.556-2.148-1.57-2.14-1.583-2.13-1.595-2.12-1.012-1.326c-11.947-15.53-36.437-11.003-42.062 7.801-2.15 7.46-.741 15.22 3.972 21.405l.835 1.098 1.422 1.888 1.41 1.898 1.398 1.907 1.39 1.918 1.38 1.926 1.363 1.929 1.356 1.944 1.345 1.952 1.327 1.951 1.32 1.97 1.313 1.98 1.295 1.978 1.284 1.992 1.275 2.002 1.26 2.004 1.25 2.019 1.24 2.025 1.224 2.028.637 1.07zm-124.322-129.292c7.33 4.69 16.46 5.047 24.161 1.02 16.212-8.705 17.222-31.44 1.743-41.43l-1.99-1.284-2.241-1.427-2.257-1.42-2.26-1.399-2.269-1.389-2.283-1.377-2.286-1.362-2.295-1.346-2.31-1.34-2.315-1.32-2.325-1.31-2.336-1.296-2.336-1.278-2.353-1.27-2.359-1.252-2.367-1.24-2.377-1.228-2.381-1.21-2.392-1.198-.345-.17c-10.51-5.078-22.965-2.046-29.903 7.357-8.818 12.111-4.648 29.146 8.804 35.758l.08.04 2.132 1.067 2.126 1.081 2.115 1.09 2.11 1.106 2.101 1.116 2.09 1.128 2.094 1.146 2.076 1.151 2.07 1.166 2.064 1.179 2.053 1.188 2.049 1.205 2.043 1.215 2.028 1.224 2.026 1.24 2.018 1.25 2.004 1.26 2.002 1.275 1.99 1.284z" style="fill:#fffffe;fill-rule:nonzero"/><g id="_390303352"><path id="_390305944" d="M891.04 1461.43c-33.63 21.834-48.357 67.734-67.662 122.574h401.244c-19.212-55.044-33.742-101.284-67.74-122.574-60.7-38.01-97.23-47.114-133.048-47.603-36.632-.499-72.528 8.473-132.795 47.603z" style="fill:#e53935"/><path id="_390305440" d="M1078.25 1422.65c-20.006-6.386-37.291-8.591-54.411-8.825-18.755-.255-37.32 1.973-59.06 9.46a18.56 18.56 0 0 0-.769 5.255c0 17.76 25.79 32.16 57.604 32.16s57.603-14.4 57.603-32.16c0-2.012-.334-3.98-.967-5.89z" style="fill:#c62828"/><path id="_390305992" class="fil6" d="M1155.98 1205.99c7.476 1.665 10.415 17.042 6.565 34.354-3.857 17.309-13.037 29.991-20.511 28.326-7.474-1.662-10.412-17.043-6.564-34.352 3.855-17.308 13.036-29.992 20.51-28.328z"/><path id="_390305920" class="fil6" d="M975.512 1279.35h96.98v140.275c0 47.343-96.981 52.787-96.981 0l.001-140.275z"/><path id="_390305824" class="fil6" d="M892.156 1205.99c-7.474 1.665-10.414 17.042-6.563 34.354 3.852 17.309 13.035 29.991 20.512 28.326 7.47-1.662 10.41-17.043 6.558-34.352-3.85-17.308-13.03-29.992-20.507-28.328z"/><path id="_390304864" class="fil7" d="M1024 1112.63c169.513 0 142.401 184.815 59.096 249.368-37.103 28.748-79.64 29.217-117.09.843-84.162-63.766-112.265-250.21 57.994-250.21z"/><path id="_390304960" class="fil8" d="M966.78 1139.87c-33.222 14.123-46.755 56.75-54.443 85.478-11.172 41.722-4.874 38.142-19.766 6.348-14.895-31.79 21.59-168.891 128.105-168.891 106.513 0 150.12 105.47 135.233 163.091-14.896 57.626-14.896 43.937-24.208.228-23.938-112.426-142.913 24.156-164.92-86.255z"/><g><path id="_390304840" d="M543.971 840.535c-30.312 19.68-43.585 61.05-60.984 110.478h361.646c-17.315-49.612-30.41-91.289-61.054-110.478-54.71-34.258-87.635-42.464-119.918-42.905-33.017-.45-65.371 7.637-119.69 42.905z" style="fill:#7cb342"/><path id="_390304888" class="fil10" d="M787.092 597.791c6.985 1.557 9.731 15.925 6.133 32.101-3.603 16.173-12.181 28.024-19.166 26.467-6.983-1.551-9.728-15.924-6.133-32.098 3.603-16.173 12.181-28.024 19.166-26.47z"/><path id="_390305200" class="fil10" d="M618.465 666.341h90.618v131.075c0 44.237-90.62 49.323-90.62 0l.002-131.075z"/><path id="_390304936" class="fil10" d="M540.577 597.791c-6.984 1.557-9.731 15.925-6.133 32.101 3.6 16.173 12.18 28.024 19.166 26.467 6.982-1.551 9.728-15.924 6.13-32.098-3.6-16.173-12.178-28.024-19.163-26.47z"/><path id="_390303832" class="fil7" d="M663.774 510.563c191.908 0 114.115 253.504-.001 253.504-114.111 0-191.91-253.503.001-253.504z"/><path id="_390304384" d="M610.306 536.011c-31.043 13.195-43.688 53.028-50.871 79.87-10.44 38.987-4.556 35.64-18.47 5.932C527.049 592.11 561.14 464 660.668 464S800.94 562.553 787.03 616.394c-13.92 53.847-13.92 41.056-22.62.214-22.37-105.052-133.54 22.571-154.103-80.597z" style="fill:#424242"/><path id="_390304264" d="m653.852 877.337-5.238 73.676h30.18l-5.237-73.671 32.012-76.679c-29.97-.535-53.954-.467-83.721 0l32.004 76.674z" style="fill:#dcedc8"/><path id="_390304288" class="fil13" d="m618.338 773.437-28.569 28.32-5.226 56.519 78.076-57.749z"/><path id="_390304480" class="fil13" d="m708.908 773.437 28.567 28.32 5.228 56.519-78.078-57.749z"/><g><path id="_390303928" d="M1262.59 842.74c-30.489 19.794-43.839 61.407-61.34 111.124h363.762c-17.416-49.903-30.589-91.824-61.411-111.124-55.03-34.459-88.148-42.713-120.62-43.156-33.21-.453-65.753 7.682-120.391 43.156z" style="fill:#039be5"/><path id="_390304168" class="fil10" d="M1337.52 667.525h91.148v131.843c0 44.496-91.15 49.612-91.15 0l.002-131.843z"/><path id="_390303976" d="M1383.1 510.834c193.032 0 114.783 254.99-.001 254.99-114.778 0-193.034-254.988.001-254.99z" style="fill:#ffd180"/><path id="_390304456" class="fil8" d="M1437 536.432c31.225 13.273 43.944 53.339 51.17 80.339 10.5 39.213 4.582 35.848 18.576 5.965 14-29.878-20.292-158.737-120.402-158.737s-141.095 99.13-127.103 153.287c14.001 54.161 14.001 41.295 22.753.214 22.5-105.666 134.321 22.704 155.006-81.068z"/><path id="_390303496" class="fil10" d="M1507.14 598.575c7.028 1.565 9.789 16.017 6.17 32.289-3.625 16.267-12.253 28.187-19.279 26.622-7.024-1.561-9.785-16.018-6.168-32.286 3.623-16.268 12.252-28.19 19.277-26.625z"/><path id="_390303472" class="fil10" d="M1259.18 598.575c-7.024 1.565-9.788 16.017-6.168 32.289 3.62 16.267 12.252 28.187 19.278 26.622 7.022-1.561 9.785-16.018 6.164-32.286-3.618-16.268-12.248-28.19-19.274-26.625z"/><path id="_390303184" d="m1373.12 879.758-5.269 74.106h30.358l-5.268-74.101 32.2-77.129c-30.146-.538-54.271-.47-84.213 0l32.192 77.124z" style="fill:#bfebea"/><path id="_390303568" class="fil17" d="m1337.39 775.249-28.73 28.485-5.26 56.851 78.53-58.088z"/><path id="_390303592" class="fil17" d="m1428.49 775.249 28.74 28.485 5.26 56.851-78.54-58.088z"/></g></g></g></g></svg>