<svg xmlns="http://www.w3.org/2000/svg" viewBox="0 0 2048 2048" style="enable-background:new 0 0 2048 2048" xml:space="preserve"><path style="fill:#cfd8dd" d="M1024 1021.672c-13.682 0-24.774-11.092-24.774-24.774V824.467c0-13.682 11.092-24.774 24.774-24.774s24.774 11.092 24.774 24.774v172.431c0 13.682-11.092 24.774-24.774 24.774zM1527.661 1248.307c-13.682 0-24.774-11.092-24.774-24.774v-148.83h-425.856c-13.682 0-24.774-11.092-24.774-24.774s11.092-24.774 24.774-24.774h450.63c13.682 0 24.774 11.092 24.774 24.774v173.604c0 13.683-11.091 24.774-24.774 24.774zM520.339 1248.307c-13.682 0-24.774-11.092-24.774-24.774v-173.604c0-13.682 11.092-24.774 24.774-24.774h450.63c13.682 0 24.774 11.092 24.774 24.774s-11.092 24.774-24.774 24.774H545.113v148.83c0 13.683-11.092 24.774-24.774 24.774z"/><circle style="fill:#465a65" cx="1024" cy="1049.927" r="53.027"/><circle style="fill:#e6ecff" cx="1024" cy="560.128" r="264.339"/><circle style="fill:#f4baa6" cx="1024" cy="501.413" r="100.817"/><path style="fill:#dd8793" d="M1202.519 755.086c-47.03 43.086-109.698 69.378-178.519 69.378s-131.489-26.292-178.519-69.378c17.435-77.275 83.768-136.01 164.779-142.018h.031a182.266 182.266 0 0 1 27.416 0h.031c81.013 6.008 147.346 64.744 164.781 142.018z"/><g><circle style="fill:#e6ecff" cx="1527.661" cy="1487.872" r="264.339"/><circle style="fill:#f4baa6" cx="1527.661" cy="1429.156" r="100.817"/><path style="fill:#bfe69f" d="M1706.18 1682.83c-47.03 43.086-109.698 69.378-178.519 69.378s-131.489-26.292-178.519-69.378c17.435-77.275 83.768-136.01 164.779-142.018h.031a182.266 182.266 0 0 1 27.416 0h.031c81.013 6.007 147.346 64.743 164.781 142.018z"/></g><g><circle style="fill:#e6ecff" cx="520.339" cy="1487.872" r="264.339"/><circle style="fill:#f4baa6" cx="520.339" cy="1429.156" r="100.817"/><path style="fill:#f7e07f" d="M698.857 1682.83c-47.03 43.086-109.698 69.378-178.519 69.378s-131.489-26.292-178.519-69.378c17.435-77.275 83.768-136.01 164.779-142.018h.031a182.266 182.266 0 0 1 27.416 0h.031c81.013 6.007 147.346 64.743 164.781 142.018z"/></g></svg>